
<svg width="0px" height="0px" viewBox="0 0 44 41" version="1.1" xmlns="http://www.w3.org/2000/svg" xmlns:xlink="http://www.w3.org/1999/xlink">
    <!-- Generator: Sketch 46.1 (44463) - http://www.bohemiancoding.com/sketch -->
    <desc>Created with Sketch.</desc>
    <defs></defs>
    <g id="Page-1" stroke="none" stroke-width="1" fill="none" fill-rule="evenodd">
        <g id="뮤식이" fill-rule="nonzero">
            <path d="M28.908,0.245 L15.254,0.245 C7.287,0.245 0.824,6.693 0.824,14.631 L0.824,19.405 L0.81,19.405 L0.81,36.247 L13.784,36.247 L10.793,39.224 L11.663,40.091 L13.708,38.054 L13.708,40.275 L14.937,40.275 L14.937,38.054 L16.982,40.091 L17.851,39.224 L14.86,36.247 L15.255,36.247 L16.159,36.247 L23.486,36.247 L20.497,39.224 L21.368,40.091 L23.412,38.054 L23.412,40.257 L24.641,40.257 L24.641,38.054 L26.688,40.091 L27.557,39.224 L24.567,36.247 L28.911,36.247 C36.886,36.247 43.35,29.803 43.35,21.86 L43.35,14.631 C43.348,6.693 36.883,0.245 28.908,0.245 Z" id="Shape" fill="#493D35"></path>
            <path d="M18.808,11.608 C18.808,14.552 16.415,16.936 13.459,16.936 C10.506,16.936 8.11,14.553 8.11,11.608 C8.11,8.661 10.506,6.278 13.459,6.278 C16.416,6.278 18.808,8.661 18.808,11.608 Z" id="Shape" fill="#FFFFFF"></path>
            <path d="M14.805,11.608 C14.805,12.344 14.203,12.943 13.459,12.943 C12.72,12.943 12.11,12.344 12.11,11.608 C12.11,10.871 12.719,10.265 13.459,10.265 C14.204,10.265 14.805,10.871 14.805,11.608 Z" id="Shape" fill="#493D35"></path>
            <path d="M36.027,11.608 C36.027,14.552 33.632,16.936 30.677,16.936 C27.726,16.936 25.329,14.553 25.329,11.608 C25.329,8.661 27.725,6.278 30.677,6.278 C33.633,6.278 36.027,8.661 36.027,11.608 Z" id="Shape" fill="#FFFFFF"></path>
            <path d="M32.021,11.608 C32.021,12.344 31.419,12.943 30.677,12.943 C29.933,12.943 29.329,12.344 29.329,11.608 C29.329,10.871 29.933,10.265 30.677,10.265 C31.421,10.265 32.021,10.871 32.021,11.608 Z" id="Shape" fill="#493D35"></path>
            <polygon id="Shape" fill="#FFFFFF" points="25.02 15.534 22.207 18.336 19.401 15.534"></polygon>
        </g>
    </g>
</svg>
