
<svg width="0px" height="0px" viewBox="0 0 146 146" version="1.1" xmlns="http://www.w3.org/2000/svg" xmlns:xlink="http://www.w3.org/1999/xlink">
    <g id="Page-1" stroke="none" stroke-width="1" fill="none" fill-rule="evenodd">
        <g id="Group-2" transform="translate(-5.000000, -5.000000)">
            <g id="background" fill="#FFCA05">
                <rect id="Rectangle" transform="translate(78.018064, 78.018064) rotate(45.000000) translate(-78.018064, -78.018064) " x="22.8584818" y="22.8584818" width="110.319165" height="110.319165" rx="14"></rect>
            </g>
            <g id="logo" transform="translate(25.000000, 54.000000)">
                <path d="M53.5093,2.6315 L90.5203,0.7895 C90.1863,3.3015 87.3393,4.9765 85.6633,6.6515 C82.4833,9.8335 79.6353,11.8425 74.9463,12.1785 C68.9173,12.5125 55.6863,9.3305 53.5093,2.6315 Z" id="Fill-2" fill="#06776C"></path>
                <path d="M71.5967,6.3161 C71.2617,11.0051 71.0387,17.0281 71.7087,21.5491 C72.7257,20.7841 73.7737,19.2121 74.7787,18.5421 C74.9487,18.6281 75.0987,18.9021 75.2537,19.0851 C75.2537,19.0851 74.6977,20.1421 74.4027,20.6211 C74.0877,21.1331 73.7747,21.5551 73.4857,22.1321 C72.8167,23.4721 72.1047,24.8591 71.9317,26.2461 C71.2617,30.7671 72.0997,35.2891 71.4297,39.8101" id="Fill-4" fill="#06776C"></path>
                <path d="M69.4189,5.9811 C69.2519,13.3501 70.0889,20.8861 69.7539,28.2551 C69.5869,32.1071 69.7539,39.1411 67.4099,42.1561" id="Fill-6" fill="#06776C"></path>
                <path d="M24.0146,28.36 L20.7036,28.36 L20.7036,23.06 L19.1136,23.06 L19.1136,27.3 L15.8016,27.3 L15.8016,15.377 L19.1136,15.377 L19.1136,19.881 L20.7036,19.881 L20.7036,15.111 L24.0146,15.111 L24.0146,28.36 Z M19.5106,34.479 C19.5106,33.632 19.1916,32.968 18.5826,32.493 C17.9476,32.041 17.1796,31.802 16.3306,31.802 C15.4566,31.802 14.7156,32.041 14.1066,32.493 C13.4696,32.968 13.1516,33.632 13.1516,34.479 C13.1516,35.328 13.4696,35.964 14.1066,36.413 C14.7156,36.889 15.4566,37.103 16.3306,37.103 C17.1796,37.103 17.9476,36.889 18.5826,36.413 C19.1916,35.964 19.5106,35.328 19.5106,34.479 L19.5106,34.479 Z M23.0876,34.479 C23.0876,36.256 22.4246,37.659 21.1536,38.716 C19.8286,39.751 18.2126,40.281 16.3056,40.281 C14.3976,40.281 12.8076,39.751 11.5356,38.716 C10.2106,37.659 9.5756,36.256 9.5756,34.479 C9.5756,32.677 10.2106,31.248 11.5356,30.187 C12.8076,29.154 14.3976,28.625 16.3056,28.625 C18.2126,28.625 19.8286,29.154 21.1536,30.187 C22.4246,31.248 23.0876,32.677 23.0876,34.479 L23.0876,34.479 Z" id="Fill-8" fill="#06776C"></path>
                <path d="M59.5259,16.0392 L59.5259,23.4982 L66.7029,23.4982 L66.7029,26.6792 L55.9079,26.6792 L55.8609,16.0482 L59.5259,16.0392 Z M43.7089,40.2812 L43.7089,32.8212 L36.5319,32.8212 L36.5319,29.6422 L47.3259,29.6422 L47.3729,40.2722 L43.7089,40.2812 Z M37.3559,26.6792 L37.3559,19.2192 L30.1799,19.2182 L30.1799,16.0392 L40.9739,16.0392 L41.0219,26.6692 L37.3559,26.6792 Z M12.8329,26.6132 L7.5569,21.3382 L2.4829,26.4122 L0.2349,24.1642 L7.8669,16.5322 L15.4179,24.0152 L12.8329,26.6132 Z M47.4639,23.3252 L47.4639,28.0932 L43.8869,28.0932 L43.8869,15.1112 L47.4639,15.1112 L47.4639,20.1462 L51.0399,20.1462 L51.0399,23.3252 L47.4639,23.3252 Z" id="Fill-10" fill="#06776C"></path>
                <path d="M87.043,23.325 L91.49,23.325 L91.49,19.219 L87.043,19.219 L87.043,23.325 Z M83.466,26.504 L95.067,26.504 L95.067,16.039 L83.466,16.039 L83.466,26.504 Z M87.604,40.015 L87.604,32.201 L79.969,32.201 L79.969,29.022 L99.215,29.022 L99.215,32.201 L91.314,32.201 L91.314,40.015 L87.604,40.015 Z" id="Fill-12" fill="#06776C"></path>
                <path d="M90.1387,0.6838 C89.8247,2.6118 88.2077,3.9048 86.8027,5.1008 C85.3327,6.3518 84.0297,7.7788 82.4917,8.9498 C79.6627,11.0998 76.3177,11.9548 72.7997,11.7678 C72.4497,11.7488 72.0987,11.7228 71.7487,11.6918 L71.7237,10.8318 C71.7907,9.3208 71.8887,7.8118 71.9937,6.3158 C72.0307,5.8048 71.2357,5.8078 71.1997,6.3158 C71.0767,8.0688 70.9667,9.8348 70.9067,11.6038 C70.5497,11.5608 70.1947,11.5138 69.8407,11.4588 C69.7977,9.6328 69.7787,7.8078 69.8167,5.9808 C69.8267,5.4698 69.0337,5.4698 69.0217,5.9808 C68.9857,7.7638 69.0037,9.5448 69.0487,11.3268 C67.2407,11.0028 65.4547,10.5318 63.7237,9.9538 C60.8057,8.9788 57.8267,7.5868 55.6587,5.3488 C54.8787,4.5438 54.2517,3.5898 53.8927,2.5258 C53.7297,2.0438 52.9617,2.2508 53.1277,2.7378 C54.0047,5.3338 56.1987,7.1568 58.4947,8.5008 C61.2467,10.1108 64.3607,11.1228 67.4607,11.8068 C67.9927,11.9238 68.5297,12.0338 69.0717,12.1318 C69.2237,17.3008 69.5617,22.4668 69.3827,27.6408 C69.2987,30.0818 69.2667,32.5308 69.0557,34.9658 C68.8507,37.3108 68.5267,40.0148 67.0667,41.9558 C66.7587,42.3638 67.4487,42.7608 67.7517,42.3558 C68.4527,41.4248 68.8917,40.3318 69.1897,39.1918 L69.1897,42.6578 L69.9837,42.6578 L69.9837,33.0468 C70.0617,31.5058 70.0847,29.9608 70.1447,28.4198 C70.3067,24.2498 70.1387,20.0838 69.9837,15.9178 L69.9837,12.2848 C70.2827,12.3298 70.5807,12.3718 70.8817,12.4088 C70.8017,15.5028 70.8867,18.6018 71.3257,21.6548 C71.3737,21.9848 71.7877,21.9898 71.9897,21.8298 C73.0107,21.0208 73.7267,19.8808 74.7387,19.0668 C74.7537,19.0848 74.7677,19.1028 74.7817,19.1208 C74.2597,20.0728 73.6467,20.9718 73.1427,21.9318 C72.2557,23.6238 71.6317,25.2658 71.4177,27.1708 C70.9487,31.3368 71.4307,35.7938 70.8457,39.9548 C70.7747,40.4538 71.5247,40.5478 71.5967,40.0418 C71.7567,38.9028 71.8477,37.7528 71.9037,36.5958 L72.0377,42.6738 L72.8317,42.6418 L72.1897,27.3208 C72.2477,26.7148 72.3357,26.1088 72.4777,25.5188 C72.7267,24.4958 73.2277,23.5388 73.6947,22.6008 C74.2627,21.4618 75.0017,20.4138 75.5957,19.2858 C75.6567,19.1708 75.6817,18.9968 75.5957,18.8848 C75.4007,18.6298 75.2347,18.3958 74.9787,18.1988 C74.8777,18.1208 74.6807,18.1258 74.5787,18.1988 C73.5827,18.9098 72.8697,19.9138 72.0017,20.7598 C71.9927,20.6878 71.9827,20.6168 71.9737,20.5448 L71.9937,20.3038 L71.7717,12.5048 C73.1717,12.6318 74.5777,12.6428 75.9587,12.4738 C79.7197,12.0088 82.7387,10.0278 85.4167,7.4508 C86.4877,6.4228 87.6317,5.4848 88.7137,4.4708 C89.7507,3.4988 90.6717,2.3308 90.9047,0.8948 C90.9847,0.3938 90.2207,0.1798 90.1387,0.6838" id="Fill-14" fill="#231F20"></path>
            </g>
        </g>
    </g>
</svg>
